<?xml version="1.0" encoding="UTF-8"?>
<!DOCTYPE svg PUBLIC "-//W3C//DTD SVG 1.1//EN" "http://www.w3.org/Graphics/SVG/1.1/DTD/svg11.dtd">
<!-- Creator: CorelDRAW X6 -->
<svg xmlns="http://www.w3.org/2000/svg" xml:space="preserve" width="266.439mm" height="72.0304mm" version="1.1" style="shape-rendering:geometricPrecision; text-rendering:geometricPrecision; image-rendering:optimizeQuality; fill-rule:evenodd; clip-rule:evenodd"
viewBox="0 0 25993 7027"
 xmlns:xlink="http://www.w3.org/1999/xlink">
 <defs>
  <style type="text/css">
   <![CDATA[
    .fil3 {fill:#FEFEFE}
    .fil2 {fill:#FEFEFE}
    .fil1 {fill:#FFCC29}
    .fil0 {fill:#0A3782}
   ]]>
  </style>
 </defs>
 <g id="__x0023_Layer_x0020_1">
  <metadata id="CorelCorpID_0Corel-Layer"/>
  <g id="_508702288">
   <path class="fil0" d="M0 6045l11840 0c-471,-555 -755,-1274 -755,-2059 0,-824 313,-1575 826,-2140l-11911 0 0 4199zm16699 0l9294 0 0 -4199 -9315 0 -22 31c497,561 799,1300 799,2109 0,785 -285,1504 -756,2059z"/>
   <path class="fil0" d="M14269 7027c1676,0 3042,-1367 3042,-3042 0,-811 -320,-1549 -839,-2095 309,-434 641,-874 992,-1321 362,-470 -170,-801 -487,-367 -363,377 -720,786 -1072,1220 -473,-303 -1035,-479 -1636,-479 -1676,0 -3042,1366 -3042,3042 0,1675 1366,3042 3042,3042z"/>
   <path class="fil1" d="M14571 6142c1274,0 2313,-1035 2313,-2303 0,-623 -250,-1189 -655,-1604 -864,1247 -1541,2437 -1983,3556 -51,300 -520,311 -573,-55 -67,-622 -344,-1698 -653,-1822 -260,-131 -224,-326 -119,-497l592 -926c129,-117 270,-125 422,-23 248,178 472,410 651,738 347,-493 696,-969 1050,-1421 -314,-160 -670,-250 -1045,-250 -1274,0 -2313,1035 -2313,2304 0,1268 1039,2303 2313,2303z"/>
   <path class="fil2" d="M14484 3771c-136,-497 -410,-843 -776,-1087l-622 958c364,94 669,668 872,2097 703,-1848 1897,-3503 3314,-5429 -929,1000 -1858,2116 -2788,3461z"/>
   <g>
    <path class="fil2" d="M1367 4577l179 -434c83,86 186,166 340,229 266,68 330,-92 222,-189 -108,-97 -304,-118 -434,-199 -693,-435 94,-1179 1244,-734l-205 394c-358,-309 -622,-116 -466,24 145,131 363,70 520,205 295,253 265,851 -412,892 -361,22 -683,-61 -988,-188z"/>
    <path class="fil2" d="M3058 3125l786 0 0 1024c51,95 201,123 302,0l0 -1024 803 0 0 1605 -803 0 0 -264c-267,426 -838,336 -1019,10 -77,-139 -69,-224 -69,-392l0 -959z"/>
    <path class="fil2" d="M5210 3125l797 0 0 126c110,-80 239,-126 377,-126 391,0 708,370 708,826 0,456 -317,826 -708,826 -138,0 -267,-47 -377,-126l0 528 -797 0 0 -2054zm959 634l0 0c-100,0 -180,97 -180,215 0,119 80,215 180,215 99,0 180,-96 180,-215 0,-118 -81,-215 -180,-215z"/>
    <path class="fil2" d="M8068 3125c468,0 847,366 847,817 0,32 -2,64 -5,95l-821 0c19,226 341,318 618,223 79,-30 148,-73 207,-131l-1 285c-209,264 -509,419 -952,339l0 0c-417,-51 -740,-395 -740,-811 0,-451 379,-817 847,-817zm-41 654l0 0 395 -4c13,-345 -412,-361 -395,4z"/>
    <path class="fil2" d="M9111 3125l804 0 0 339c0,-7 21,-27 44,-48 23,-23 40,-38 56,-65 67,-117 175,-226 349,-226 186,0 395,175 395,391 0,216 -220,391 -395,391 -129,0 -206,-32 -267,-87 -60,-55 -50,-94 -106,-12 -18,27 -38,57 -54,94 -22,50 -22,84 -22,141l0 693 -804 0 0 -1611z"/>
    <path class="fil2" d="M17974 3136l797 0 0 126c109,-80 239,-126 377,-126 391,0 708,370 708,826 0,456 -317,826 -708,826 -138,0 -268,-47 -377,-127l0 529 -797 0 0 -2054zm959 634l0 0c-100,0 -181,96 -181,215 0,119 81,215 181,215 99,0 180,-96 180,-215 0,-119 -81,-215 -180,-215z"/>
    <polygon class="fil2" points="20052,4730 20841,4730 20841,2701 20052,2701 "/>
    <path class="fil2" d="M21065 3127l786 0 0 1024c50,96 201,123 302,0l0 -1024 803 0 0 1605 -803 0 0 -264c-268,426 -838,336 -1019,10 -77,-139 -69,-224 -69,-392l0 -959z"/>
    <path class="fil2" d="M23048 4583l179 -434c84,86 186,166 340,229 266,68 331,-91 222,-189 -107,-97 -303,-117 -433,-199 -694,-435 93,-1179 1243,-734l-205 394c-357,-309 -621,-116 -466,24 146,131 364,70 521,205 294,254 265,851 -413,892 -360,22 -682,-61 -988,-188z"/>
   </g>
   <path class="fil3" d="M14466 6546c981,0 1835,-581 2263,-1430 -420,918 -1366,1561 -2460,1561 -1483,0 -2692,-1180 -2692,-2627 0,-939 510,-1766 1273,-2230 -573,489 -939,1232 -939,2061 0,1468 1148,2665 2555,2665z"/>
  </g>
 </g>
</svg>
