<?xml version="1.0" encoding="UTF-8"?>
<!DOCTYPE svg PUBLIC "-//W3C//DTD SVG 1.1//EN" "http://www.w3.org/Graphics/SVG/1.1/DTD/svg11.dtd">
<!-- Creator: CorelDRAW X6 -->
<svg xmlns="http://www.w3.org/2000/svg" xml:space="preserve" width="142.38mm" height="157.341mm" version="1.1" style="shape-rendering:geometricPrecision; text-rendering:geometricPrecision; image-rendering:optimizeQuality; fill-rule:evenodd; clip-rule:evenodd"
viewBox="0 0 16872 18645"
 xmlns:xlink="http://www.w3.org/1999/xlink">
 <defs>
  <style type="text/css">
   <![CDATA[
    .fil3 {fill:#FEFEFE}
    .fil2 {fill:#FEFEFE}
    .fil1 {fill:#FFCC29}
    .fil0 {fill:#0A3782}
   ]]>
  </style>
 </defs>
 <g id="__x0023_Layer_x0020_1">
  <metadata id="CorelCorpID_0Corel-Layer"/>
  <path class="fil0" d="M8072 18645c4446,0 8072,-3626 8072,-8072 0,-2151 -849,-4109 -2228,-5559 822,-1151 1701,-2319 2634,-3504 960,-1247 -452,-2125 -1294,-974 -962,1000 -1909,2085 -2844,3237 -1255,-805 -2744,-1272 -4340,-1272 -4446,0 -8072,3626 -8072,8072 0,4446 3626,8072 8072,8072z"/>
  <path class="fil1" d="M8873 16296c3380,0 6137,-2745 6137,-6111 0,-1651 -664,-3153 -1739,-4254 -2292,3309 -4087,6466 -5260,9434 -136,797 -1380,826 -1520,-144 -179,-1651 -913,-4506 -1733,-4836 -690,-347 -596,-866 -317,-1318l1572 -2457c343,-311 715,-332 1119,-62 659,473 1253,1088 1729,1958 919,-1307 1846,-2571 2784,-3771 -833,-423 -1776,-661 -2772,-661 -3381,0 -6138,2745 -6138,6111 0,3366 2757,6111 6138,6111z"/>
  <path class="fil2" d="M8644 10006c-363,-1319 -1088,-2238 -2061,-2886l-1649 2543c964,249 1775,1772 2313,5565 1866,-4905 5034,-9295 8794,-14405 -2466,2653 -4932,5614 -7397,9183z"/>
  <path class="fil3" d="M8595 17368c2601,0 4868,-1542 6004,-3794 -1115,2437 -3623,4142 -6527,4142 -3934,0 -7143,-3131 -7143,-6969 0,-2492 1352,-4686 3378,-5918 -1519,1298 -2491,3269 -2491,5469 0,3894 3045,7070 6779,7070z"/>
 </g>
</svg>
